<svg id="D20" xmlns="http://www.w3.org/2000/svg" viewBox="0 0 82.79 88.25"><title>d20-icon</title><path id="Outline" d="M77.88,15.45c6.61,14.49,15.07,38.32,13.21,40.83-10.19,15.27-20.34,30.37-28.82,37C56.81,95,32.87,85.36,22.68,79.58c-6.08-9.14-10-21.47-13-35.2C11.39,36.63,24.7,18,37.16,6.28A304,304,0,0,1,77.88,15.45Z" transform="translate(-9.06 -5.75)" fill="none" stroke="#000" stroke-miterlimit="10"/><path id="Inner_Lines" data-name="Inner Lines" d="M68.46,61.5c-18.35,4-33.92,7.52-46.27,8.28H22c1.48,4.73,30.63,22.71,38.92,23.71l1.34-.2Q66,77.4,68.46,61.5c5-15.38,9.15-40.5,9.22-45.79-12,2.42-27.53,4.92-45.57,8.07V24L37.28,6.3,32.41,24.08l-10.54,45a45,45,0,0,0,.82,10.52l-.83-10.43c-4-4.29-8.11-15.24-12.21-24.77A181.06,181.06,0,0,1,32.12,24L68.46,61.5a153.57,153.57,0,0,0,22.82-5.71" transform="translate(-9.06 -5.75)" fill="none" stroke="#000" stroke-miterlimit="10"/></svg>