<svg id="EXP_Logo" data-name="EXP Logo" xmlns="http://www.w3.org/2000/svg" viewBox="0 0 98.07 47"><title>EXP-Logo</title><path id="EXP" d="M55,48.15,65.49,59.38,67,61H60.4a3.72,3.72,0,0,1-1.14,0c-.21-.09-.45-.46-.61-.62L57.2,58.87l-4-4.07-2.51-2.58-3.87,3.9L44,59a15.27,15.27,0,0,1-1.83,1.85c-.49.34-1.21.18-1.83.18H6.61a6,6,0,0,1-4.67-2.66C.72,56.58,1,54.6,1,52.58V44.8c0-.67,0-1.34,0-2a5.46,5.46,0,0,1,2.19-4.17A6.66,6.66,0,0,1,6.27,37a19.51,19.51,0,0,1,2,0H23.22c.56,0,1.15,0,1.71,0a3.14,3.14,0,0,1,1.39.44c.73.45.68.67.68,1.43,0,1.33.2,2.43-.92,3.4a2.93,2.93,0,0,1-2.14.73h-16c-.15,0-.76-.09-.86,0s0,.76,0,1V47c.67-.46,1.16-1,2-1l3.79,0,4.62,0,2.11,0a5.93,5.93,0,0,1,1.14,1.42l.37,1.2a6.07,6.07,0,0,1,0,1.68,3.56,3.56,0,0,1-1.05,1.48h-2l-4.67,0L9,51.77c-1,0-1.43-.8-2.13-1.47l0,4.18c0,.75-.2.91.5.91l6.78,0,20.71,0h3a2.24,2.24,0,0,0,.93-.07,5.44,5.44,0,0,0,1-1l1.73-1.65L45.33,49c.25-.24,1-.7,1.08-1s.06,0-.08-.29a5.4,5.4,0,0,0-1-1l-1.55-1.63c-2.16-2.28-4.51-4.47-6.52-6.88-.28-.33-.27-.25-.3-.72,0-.65,0-.59.56-.6l4.9,0c.79,0,1.71-.26,2.31.27,1.12,1,2.12,2.14,3.16,3.2l1.89,1.92A7.16,7.16,0,0,0,51,43.47c.36.2,0,.17.36.05s.93-.89,1.24-1.19l3.8-3.64c.46-.44,1.17-1.46,1.78-1.69a4.85,4.85,0,0,1,1.39,0H92.14c2,0,3.77-.14,5.4,1.32A4.52,4.52,0,0,1,99,42.11v5.28c0,1.12.23,2.42-.34,3.43A4.47,4.47,0,0,1,94.9,53H82.66l0,4.64a5.9,5.9,0,0,1,0,1.77,5.34,5.34,0,0,1-1.54,1.47A4.27,4.27,0,0,1,79.3,61c-.8,0-1.06.12-1.6-.43S76.27,59.42,76,58.8a3.46,3.46,0,0,1,0-1.05L75.87,52l0-2.6a3.66,3.66,0,0,1,0-1.06c.4-1.16,1.18-1,2.15-1h5.26l10.22,0V45.2a7.39,7.39,0,0,0,0-2.26,2.56,2.56,0,0,0-1-.85,3.14,3.14,0,0,0-.78,0c-3.16,0-6.31,0-9.47,0-4.35,0-8.7,0-13.06,0H63.92a15.1,15.1,0,0,0-2.85,0c-.87.18-1.74,1.58-2.35,2.21Z" transform="translate(-0.97 -24.5)"/><circle id="Circle" cx="49.03" cy="23.5" r="21" fill="none" stroke="#000" stroke-miterlimit="10" stroke-width="5"/></svg>