<svg id="Potion" xmlns="http://www.w3.org/2000/svg" viewBox="0 0 52.9 66.7"><title>potion-icon</title><g id="Liquid"><path id="_Path_" data-name="&lt;Path&gt;" d="M65.3,67.64A21.34,21.34,0,0,1,37.6,78.91,20.7,20.7,0,0,1,26.12,51.69s8.77,12.37,19.59,8C69.25,50.09,69.79,57,65.3,67.64Z" transform="translate(-19.57 -19)"/><path d="M35.52,50.15a2,2,0,0,1-2.64,1.07,2,2,0,0,1-1.09-2.59,2,2,0,0,1,2.64-1.07A2,2,0,0,1,35.52,50.15Z" transform="translate(-19.57 -19)"/><path d="M41,44.87a1,1,0,0,1-1.32.54,1,1,0,0,1-.55-1.3,1,1,0,0,1,1.32-.54A1,1,0,0,1,41,44.87Z" transform="translate(-19.57 -19)"/></g><g id="Bottle"><path d="M59.32,39.57c10.49,7.19,13.14,21.56,6.5,32.35A23.44,23.44,0,0,1,23.1,54.17C25.89,41.84,38,33.54,50.47,35.89c1.89.36,2.7-2.53.8-2.89C29.08,28.81,11.58,53.79,23.34,73.23,34.62,91.88,63,89,70.67,68.76A26.79,26.79,0,0,0,60.83,37c-1.6-1.09-3.1,1.5-1.51,2.59Z" transform="translate(-19.57 -19)"/><path d="M61.52,38.67l5.34-12.94c.74-1.78-2.17-2.56-2.89-.8L58.63,37.88c-.74,1.78,2.17,2.56,2.89.8l5.34-12.94c.74-1.78-2.17-2.56-2.89-.8L58.63,37.88C57.89,39.66,60.8,40.44,61.52,38.67Z" transform="translate(-19.57 -19)"/><path d="M52.31,34.84,57.65,21.9c.74-1.78-2.17-2.56-2.89-.8L49.42,34c-.74,1.78,2.17,2.56,2.89.8L57.65,21.9c.74-1.78-2.17-2.56-2.89-.8L49.42,34C48.68,35.83,51.58,36.61,52.31,34.84Z" transform="translate(-19.57 -19)"/></g><polygon id="Cork" points="43.44 8.5 36.44 5.76 37.44 0 47.44 4 43.44 8.5"/></svg>