<?xml version="1.0" standalone="no"?>
<!DOCTYPE svg PUBLIC "-//W3C//DTD SVG 20010904//EN"
 "http://www.w3.org/TR/2001/REC-SVG-20010904/DTD/svg10.dtd">
<svg version="1.0" xmlns="http://www.w3.org/2000/svg"
 width="400.000000pt" height="400.000000pt" viewBox="0 0 400.000000 400.000000"
 preserveAspectRatio="xMidYMid meet">
<metadata>
Created by potrace 1.11, written by Peter Selinger 2001-2013
</metadata>
<g transform="translate(0.000000,400.000000) scale(0.100000,-0.100000)"
fill="#000000" stroke="none">
<path d="M1870 3013 c-384 -65 -679 -327 -780 -694 -19 -68 -24 -110 -24 -219
-1 -74 2 -153 6 -175 12 -62 25 -112 32 -124 5 -7 -5 -11 -31 -11 -21 0 -206
-1 -411 -1 -205 -1 -375 1 -378 4 -7 6 -13 168 -7 179 2 4 14 -4 28 -18 27
-26 0 -24 339 -27 159 -2 159 -2 177 23 34 46 25 138 -17 183 l-25 27 -223 0
c-213 0 -225 -1 -251 -21 l-27 -22 3 79 4 79 368 5 369 5 29 33 c26 29 29 39
29 100 0 107 21 103 -456 103 l-396 0 -45 -27 c-61 -35 -96 -70 -122 -121 -21
-40 -22 -53 -22 -326 0 -182 4 -301 11 -328 15 -53 91 -130 147 -147 29 -9
178 -12 530 -12 l490 0 30 -42 c78 -109 201 -211 329 -276 148 -75 251 -97
439 -96 153 0 248 21 381 83 253 119 444 346 514 611 25 97 36 302 19 385 -5
28 -11 60 -13 71 l-4 22 391 -3 c216 -1 400 -5 410 -10 9 -4 19 -17 22 -29 4
-16 1 -124 -4 -168 -1 -4 -148 -5 -328 -4 -269 3 -332 1 -351 -11 l-23 -14 5
-216 4 -216 36 -39 c42 -46 71 -56 139 -48 37 5 56 14 74 34 21 25 23 35 23
155 l0 128 259 0 c243 0 261 1 302 21 24 12 55 38 68 57 23 34 24 40 22 226
-2 214 -10 251 -64 292 -63 47 -74 48 -583 47 l-480 0 -47 72 c-82 130 -217
252 -352 320 -69 36 -172 75 -212 83 -15 3 -39 8 -53 11 -30 7 -265 13 -300 7z
m345 -227 c140 -46 291 -146 356 -237 l21 -30 -118 1 c-66 1 -127 1 -136 1 -9
-1 -76 -59 -150 -131 -73 -71 -135 -130 -138 -130 -4 0 -66 61 -138 136 l-132
135 -151 -3 c-83 -1 -152 -5 -154 -9 -11 -16 45 -85 200 -245 94 -97 171 -181
173 -188 1 -7 -23 -36 -55 -65 -32 -29 -99 -93 -149 -142 l-91 -90 -119 3
-118 3 -24 75 c-31 95 -38 254 -16 354 30 143 94 263 194 366 104 107 216 172
360 209 111 28 278 22 385 -13z m502 -523 c24 -80 24 -274 0 -363 -19 -71 -79
-205 -104 -232 -15 -16 -17 -15 -45 15 -27 28 -190 203 -320 342 l-47 50 72
74 c39 41 93 96 119 123 l46 48 131 0 130 0 18 -57z m-421 -628 l79 -80 72 1
c40 1 70 -2 67 -7 -12 -20 -124 -99 -179 -127 -108 -54 -198 -76 -315 -76
-149 -1 -210 11 -340 67 -40 18 -169 106 -189 131 -12 15 -5 16 90 16 l104 0
172 174 172 174 95 -97 c51 -53 129 -132 172 -176z"/>
</g>
</svg>
