<?xml version="1.0" standalone="no"?>
<!DOCTYPE svg PUBLIC "-//W3C//DTD SVG 20010904//EN"
 "http://www.w3.org/TR/2001/REC-SVG-20010904/DTD/svg10.dtd">
<svg version="1.0" xmlns="http://www.w3.org/2000/svg"
 width="400.000000pt" height="400.000000pt" viewBox="0 0 400.000000 400.000000"
 preserveAspectRatio="xMidYMid meet">
<metadata>
Created by potrace 1.11, written by Peter Selinger 2001-2013
</metadata>
<g transform="translate(0.000000,400.000000) scale(0.100000,-0.100000)"
fill="#000000" stroke="none">
<path d="M1855 2983 c-193 -44 -293 -83 -399 -155 -115 -78 -186 -151 -260
-266 -66 -103 -84 -145 -116 -266 -22 -89 -28 -133 -29 -233 -1 -68 2 -123 6
-123 4 0 7 34 5 75 l-4 75 81 0 81 0 0 -37 c1 -66 11 -146 27 -201 8 -30 13
-56 10 -58 -8 -8 -141 -9 -154 -1 -6 4 -14 24 -19 44 -4 21 -8 41 -9 46 -2 4
-3 16 -4 27 0 11 -5 20 -10 20 -5 0 -3 -28 5 -62 8 -34 13 -65 12 -70 -3 -9
-785 -14 -794 -5 -5 5 -13 187 -8 187 0 0 13 -11 28 -25 30 -28 3 -25 340 -28
159 -2 159 -2 177 23 34 46 25 138 -17 183 l-25 27 -223 0 c-211 0 -225 -1
-250 -21 l-26 -20 0 80 0 81 366 0 366 0 34 34 c32 32 34 38 34 103 0 109 21
104 -453 104 -216 0 -402 -3 -412 -7 -57 -21 -138 -99 -161 -154 -19 -44 -22
-573 -4 -640 13 -50 81 -122 136 -145 31 -13 109 -15 538 -15 l501 0 30 -41
c72 -97 231 -227 352 -288 107 -53 193 -73 349 -78 l141 -5 -12 76 c-13 85
-18 79 65 92 52 8 147 38 210 66 l44 20 24 -28 c33 -40 55 -74 51 -77 -100
-56 -190 -92 -299 -119 -59 -14 -65 -16 -26 -12 171 20 371 127 508 272 96
102 192 276 212 383 7 39 -3 19 -24 -46 -7 -22 -26 -68 -42 -103 l-30 -62 -26
19 c-15 11 -37 29 -49 40 l-22 21 25 55 c31 67 66 185 55 185 -5 0 -11 -15
-14 -34 -7 -46 -60 -175 -92 -226 -15 -23 -24 -44 -21 -47 3 -3 11 6 17 21 7
14 17 26 22 26 6 0 29 -16 53 -36 l44 -35 -27 -42 c-45 -72 -137 -168 -207
-216 l-45 -31 -40 52 c-25 33 -36 54 -28 57 18 6 86 59 131 103 35 33 45 37
83 35 24 -2 42 0 41 4 -3 6 -85 95 -289 313 -37 39 -94 100 -128 136 l-60 65
72 74 c40 41 93 96 118 123 l47 48 151 0 c83 0 151 -1 151 -2 0 -2 7 -41 15
-88 16 -86 18 -199 4 -257 -4 -18 -3 -33 2 -33 5 0 10 14 10 30 1 17 2 36 3
43 1 8 23 13 64 15 l64 3 -7 -63 c-4 -34 -11 -72 -16 -85 -5 -13 -5 -23 0 -23
18 0 29 107 26 255 -2 83 -6 162 -10 176 l-7 26 404 -2 c221 -1 411 -5 421
-10 23 -10 28 -36 23 -115 -3 -36 -5 -70 -5 -77 -1 -9 -82 -11 -328 -9 -270 3
-332 1 -351 -11 l-23 -14 5 -220 4 -219 42 -40 c38 -36 48 -41 94 -42 65 -2
90 7 116 39 18 23 20 40 20 153 l0 127 259 0 c243 0 261 1 302 21 24 12 55 38
68 57 24 35 24 40 22 228 -2 212 -11 252 -68 293 -59 43 -76 45 -588 45 l-490
-1 -44 66 c-90 134 -216 239 -374 314 -131 62 -220 82 -382 85 -77 2 -149 1
-160 -2z m315 -19 c81 -17 201 -56 198 -64 -2 -3 -12 -29 -22 -58 -11 -29 -25
-52 -31 -52 -7 0 -36 8 -66 19 -31 10 -75 21 -100 25 -26 3 -9 -4 43 -19 152
-42 267 -113 385 -234 29 -30 53 -50 53 -44 0 21 -162 163 -226 199 -35 19
-66 39 -68 42 -2 4 8 33 21 64 l25 57 57 -31 c144 -80 260 -187 346 -320 l17
-28 -223 0 c-123 1 -232 1 -241 0 -9 0 -76 -58 -150 -130 -73 -71 -135 -130
-138 -130 -4 0 -66 61 -138 135 l-132 136 -146 -2 c-209 -2 -210 3 42 -255 95
-99 173 -184 174 -190 0 -6 -26 -35 -57 -63 -32 -29 -99 -93 -149 -142 l-91
-89 -140 0 -140 0 -18 73 c-66 266 21 576 213 759 146 140 343 217 545 214 48
-1 87 2 87 6 0 13 -215 0 -285 -16 -38 -10 -108 -35 -154 -57 -46 -21 -85 -38
-86 -37 -22 39 -68 108 -71 108 -7 0 11 -36 38 -75 l27 -40 -37 -29 c-62 -50
-139 -131 -177 -190 l-37 -55 -57 35 c-31 20 -59 39 -63 43 -11 10 51 97 118
167 134 138 306 230 504 268 87 17 270 17 350 0z m-905 -493 c22 -14 42 -26
44 -28 2 -1 -8 -30 -22 -65 -32 -83 -59 -192 -66 -270 -1 -5 -37 -8 -81 -8
-76 0 -80 1 -80 23 0 80 48 254 97 350 26 53 22 53 108 -2z m1618 -181 c4 -14
11 -76 14 -138 l6 -114 -59 4 -59 3 -3 40 c-3 56 -20 186 -28 212 -6 22 -4 22
57 20 59 -2 65 -4 72 -27z m-589 -654 l75 -80 103 1 103 0 -57 -51 c-229 -208
-590 -253 -880 -111 -81 39 -173 104 -201 141 l-18 24 133 0 133 0 172 174
172 174 95 -97 c52 -53 128 -132 170 -175z m-863 -112 c77 -81 234 -167 361
-198 37 -9 111 -19 165 -23 54 -3 101 -8 104 -12 4 -3 9 -35 13 -70 l6 -64
-133 6 c-72 3 -148 11 -167 17 -19 6 -42 13 -50 15 -8 2 -27 8 -42 14 l-27 10
31 56 c16 31 28 59 25 62 -3 2 -18 -20 -33 -51 -15 -31 -33 -56 -39 -56 -32 0
-171 89 -249 160 -49 45 -124 123 -143 150 -14 20 -13 20 64 20 78 0 80 -1
114 -36z"/>
</g>
</svg>
