<svg id="Level_Up_Icon" data-name="Level Up Icon" xmlns="http://www.w3.org/2000/svg" viewBox="0 0 96 96"><title>exp-level-up</title><polyline id="Notch" points="57.8 93.37 51.74 82.88 74.52 69.73 80.57 80.23"/><path id="Card" d="M83,63,42,87c-1,.55-1.45,0-2-1L25,61a2.43,2.43,0,0,1,1-3L67,34c1-.55,1.45,0,2,1L84,60A2.42,2.42,0,0,1,83,63Z" transform="translate(-2 -2)" fill="none" stroke="#000" stroke-miterlimit="10"/><path id="Circle" d="M37.73,5.65A46,46,0,1,1,15.95,19.07" transform="translate(-2 -2)" fill="none" stroke="#000" stroke-miterlimit="10" stroke-width="4"/><polygon id="Arrow" points="20 2 62 19.67 49.68 27 54 34 31.5 47.5 27 40 15 47 20 2" fill="none" stroke="#000" stroke-miterlimit="10"/><g id="exp-logo"><path id="EXP" d="M56.72,59.26l6.19,1.88.89.27-2.4,1.39A1.57,1.57,0,0,1,61,63a1.26,1.26,0,0,1-.35-.1l-.85-.24-2.31-.64L56,61.66l-.59,2.24L55,65.53a6.43,6.43,0,0,1-.28,1.06c-.11.23-.4.32-.63.45L41.81,74.15a2.52,2.52,0,0,1-2.26,0A4,4,0,0,1,38,72.26l-1.64-2.83-.42-.73a2.3,2.3,0,0,1-.08-2,2.8,2.8,0,0,1,.78-1.24,8.21,8.21,0,0,1,.73-.42L42.8,61.9l.62-.36a1.32,1.32,0,0,1,.6-.13c.36,0,.39.1.55.38.28.48.59.84.38,1.43a1.23,1.23,0,0,1-.63.72L38.5,67.31c-.05,0-.3.13-.31.18s.16.28.21.36L39,68.95c.15-.31.21-.61.52-.79l1.38-.8,1.68-1,.77-.44a2.5,2.5,0,0,1,.71.28l.39.36a2.55,2.55,0,0,1,.35.61,1.5,1.5,0,0,1-.07.76l-.73.42-1.7,1-1.6.92c-.36.21-.69,0-1.09-.09l.88,1.52c.16.27.12.37.37.23l2.47-1.43,7.54-4.37L52,65.51a.94.94,0,0,0,.32-.22,2.29,2.29,0,0,0,.15-.57l.28-1,.61-2.14c0-.14.22-.47.18-.59s0,0-.09-.09a2.27,2.27,0,0,0-.57-.15L52,60.51c-1.27-.38-2.58-.68-3.82-1.13-.17-.06-.15,0-.26-.2s-.12-.21.08-.34l1.78-1c.29-.17.57-.46.9-.39.62.13,1.22.33,1.83.5l1.09.3a3,3,0,0,0,.7.18c.17,0,0,.06.14-.06a2.53,2.53,0,0,0,.2-.69l.62-2.13a3.33,3.33,0,0,1,.29-1,2,2,0,0,1,.51-.29l11.86-6.86a3,3,0,0,1,2.24-.66,1.9,1.9,0,0,1,1.33,1.07l1.11,1.92a2.93,2.93,0,0,1,.6,1.32,1.88,1.88,0,0,1-.91,1.59L67.81,55.2l1,1.69a2.48,2.48,0,0,1,.37.64,2.25,2.25,0,0,1-.25.86,1.8,1.8,0,0,1-.64.43c-.29.17-.36.27-.67.18a3.49,3.49,0,0,1-1-.29,1.46,1.46,0,0,1-.22-.38l-1.26-2.07-.55-.95a1.54,1.54,0,0,1-.22-.39c-.1-.51.22-.61.57-.82L66.85,53l3.72-2.15-.45-.78a3.11,3.11,0,0,0-.48-.82,1.08,1.08,0,0,0-.54-.1,1.32,1.32,0,0,0-.28.16l-3.45,2-4.76,2.75-1.92,1.11a6.35,6.35,0,0,0-1,.6c-.28.25-.3.94-.39,1.3Z" transform="translate(-2 -2)"/><circle id="Circle-2" data-name="Circle" cx="54.87" cy="60.26" r="8.84" transform="translate(-24.81 33.59) rotate(-30.06)" fill="none" stroke="#000" stroke-miterlimit="10"/></g></svg>